<?xml version="1.0" encoding="iso-8859-1"?>
<!-- Generator: Adobe Illustrator 24.0.0, SVG Export Plug-In . SVG Version: 6.00 Build 0)  -->
<svg version="1.1" id="&#x56FE;&#x5C42;_1" xmlns="http://www.w3.org/2000/svg" xmlns:xlink="http://www.w3.org/1999/xlink" x="0px"
	 y="0px" viewBox="0 0 1000 1000" style="enable-background:new 0 0 1000 1000;" xml:space="preserve">
<image style="display:none;overflow:visible;" width="414" height="347" xlink:href="C:\Users\Administrator\Downloads\istockphoto-1159112590-1024x1024.png"  transform="matrix(2.4159 0 0 2.4159 -0.1635 30.1601)">
</image>
<path style="fill:#FFFFFF;" d="M267,55c17.721,14.809,43.215,39.443,65.016,75.821C359.692,176.999,367.583,219.019,374,255
	c6.906,38.721,6.937,70.814,7,135c0.029,30.1-0.023,60.038-4,100c-3.771,37.898-9.578,69.8-14.785,93.793
	C381.078,568.696,408.634,549.941,445,535c31.046-12.755,59.212-18.911,81-22c3.972-36.031,5.451-87.413-7-147
	c-17.015-81.427-52.22-140.734-76.257-174.783c16.27,13.661,38.359,35.08,58.257,65.783c16.198,24.995,23.947,45.347,36,77
	c20.702,54.368,28.418,96.169,30,105c5.266,29.401,7.269,54.768,8,74c7.545,0.049,15.564,0.35,24,1c6.636,0.511,12.977,1.195,19,2
	c-0.444-49.295-7.013-90.782-14-122c-15.617-69.779-40.238-119.224-49-136c-14.055-26.913-31.668-60.067-65-96
	c-26.556-28.628-53.083-48.232-73-61c-14.387-9.132-32.402-18.84-54-27C325.313,59.762,291.354,55.77,267,55z"/>
<path style="fill:#FFFFFF;" d="M362,292c-8.961-18.701-35.887-68.219-93-93c-17.97-7.797-34.919-11.406-49-13
	c9.425,6.908,22.755,18.183,35,35c4.869,6.687,20.054,28.653,30,74c2.241,10.219,7.253,35.469,6.752,97.538
	C291.318,446.435,287.035,487.259,286,497c-3.986,37.506-11.174,86.709-25,144c13.628-12.252,29.578-25.209,48-38
	c13.905-9.655,27.355-17.922,40-25c6.118-38.452,9.753-72.274,12-100c5.147-63.5,4.365-111.745,4-128
	c-0.544-24.241-1.767-44.307-2.785-58.122"/>
<path style="fill:#FFFFFF;" d="M696,534c-0.182-1.349-19.192,0.175-31.592,1.188C641.301,537.074,597.096,540.66,552,550
	c-22.073,4.572-86.4,18.9-178,60c-67.444,30.262-164.92,81.878-272,169c80.144-27.892,150.128-46.915,205-60
	c84.569-20.166,150.188-30.284,201-38c76.947-11.684,143.589-18.653,196-23c3.326-11.432,8.994-25.965,19-41
	c21.788-32.737,51.205-48.413,66-55c-55.929-2.235-102.305,1.108-136,5c-54.951,6.348-97.832,16.651-145,28
	c-38.278,9.21-70.071,18.175-93,25c26.728-14.402,65.748-33.177,115-49C616.445,543.228,696.373,536.766,696,534z"/>
<path style="fill:#00B3E9;" d="M31,846c28.026-14.941,67.21-33.209,116-48c28.105-8.52,164.209-47.661,339-12
	c34.215,6.98,78.653,18.61,129,39c-114.756-14.041-210.678-15.801-282-14c-74.288,1.876-129.716,7.813-149,10
	c-55.859,6.336-107.358,15.111-154,25"/>
<path style="fill:#0876C1;" d="M973,728c-56.132-20.95-130.781-41.627-220-48c-105.915-7.565-186.027,8.339-208,13
	c-66.796,14.17-120.596,35.662-159,54c49.189-9.263,111.842-18.937,185-25c79.139-6.558,139.182-6.289,181-6
	C811.365,716.41,886.304,719.198,973,728z"/>
</svg>
