<?xml version="1.0" encoding="utf-8"?>
<!-- Generator: Adobe Illustrator 24.0.0, SVG Export Plug-In . SVG Version: 6.00 Build 0)  -->
<svg version="1.1" id="Capa_1" xmlns="http://www.w3.org/2000/svg" xmlns:xlink="http://www.w3.org/1999/xlink" x="0px" y="0px"
	 viewBox="0 0 48 48" style="enable-background:new 0 0 48 48;" xml:space="preserve">
<style type="text/css">
	.st0{fill:#FFFFFF;}
</style>
<g>
	<path class="st0" d="M36.8,11.4C36.8,4.4,31,0,24,0S11.2,4.4,11.2,11.4v2.2h25.5V11.4z M19.3,11.4c-1.6,0-3-1.3-3-3
		c0-1.6,1.3-3,3-3c1.6,0,3,1.3,3,3S21,11.4,19.3,11.4z M28.7,11.4c-1.6,0-3-1.3-3-3c0-1.6,1.3-3,3-3c1.6,0,3,1.3,3,3
		C31.7,10.1,30.3,11.4,28.7,11.4z M3,18.3h3.1v11.3H3V18.3z M7.3,29.7c0,4.3,1.6,7.8,4.3,10.4V48h8.5v-3.8c1.2,0.3,2.6,0.4,3.9,0.4
		c1.3,0,2.7-0.1,3.9-0.4V48h8.5v-7.8c2.7-2.6,4.3-6.1,4.3-10.4V15.6H7.3V29.7z M28.3,32.8l7.1-3.2l-7.1-3.2v-2.1l9.3,4.4v1.9
		l-9.3,4.4L28.3,32.8L28.3,32.8z M25.2,22.1h1.9l-4.2,14.7H21L25.2,22.1z M10.4,28.6l9.3-4.6v2.3l-7,3.2l7,3.2v2.2l-9.3-4.6V28.6z
		 M45,18.3v11.3h-3.1V18.3H45z"/>
</g>
</svg>
