<?xml version="1.0" encoding="utf-8"?>
<!-- Generator: Adobe Illustrator 24.0.0, SVG Export Plug-In . SVG Version: 6.00 Build 0)  -->
<svg version="1.1" id="Capa_1" xmlns="http://www.w3.org/2000/svg" xmlns:xlink="http://www.w3.org/1999/xlink" x="0px" y="0px"
	 viewBox="0 0 277.5 277.5" style="enable-background:new 0 0 277.5 277.5;" xml:space="preserve">
<style type="text/css">
	.st0{fill:#FFFFFF;}
</style>
<g>
	<g>
		<path class="st0" d="M277.5,127.8h-7.1V76.7h-32.3L165.9,4.6l-43.7,43.7L96.6,22.6L42.5,76.7H0v196.2h270.4v-78.9h7.1V127.8z
			 M216.9,76.7H115l50.9-50.9L216.9,76.7z M96.6,43.8l15.1,15.1L93.8,76.7H63.7L96.6,43.8z M255.4,257.9H15V91.7h240.4v36.1h-97.9
			v66.3h97.9L255.4,257.9L255.4,257.9z M262.5,179.1h-90v-36.3h90V179.1z"/>
		<rect x="183.3" y="153.4" class="st0" width="20.8" height="15"/>
	</g>
</g>
</svg>
