<svg width="24" height="24" viewBox="0 0 24 24" fill="none" xmlns="http://www.w3.org/2000/svg">
<path fill-rule="evenodd" clip-rule="evenodd" d="M4.33751 8.75094C4.75121 8.38505 5.38318 8.4238 5.74907 8.8375L11.4925 15.3314C11.5571 15.405 11.7241 15.5 11.9798 15.5C12.2354 15.5 12.4024 15.405 12.467 15.3314L12.472 15.3256L18.2533 8.83489C18.6206 8.42247 19.2527 8.38592 19.6651 8.75326C20.0775 9.12059 20.1141 9.7527 19.7468 10.1651L13.9677 16.6534C13.4369 17.2564 12.6642 17.5 11.9798 17.5C11.2948 17.5 10.5213 17.256 9.99046 16.6519L4.25095 10.1625C3.88506 9.74881 3.92382 9.11683 4.33751 8.75094Z" fill="#828282"/>
</svg>
